<?xml version="1.0" standalone="no"?><!DOCTYPE svg PUBLIC "-//W3C//DTD SVG 1.1//EN" "http://www.w3.org/Graphics/SVG/1.1/DTD/svg11.dtd"><svg t="1693898457575" class="icon" viewBox="0 0 1024 1024" version="1.1" xmlns="http://www.w3.org/2000/svg" p-id="7600" xmlns:xlink="http://www.w3.org/1999/xlink" width="200" height="200"><path d="M292.571429 630.857143V566.857143a36.571429 36.571429 0 0 1 36.571428-36.571429h402.285714a36.571429 36.571429 0 0 1 36.571429 36.571429v64h64V457.142857h-621.714286v173.714286H292.571429zM768 658.285714v146.285715a36.571429 36.571429 0 0 1-36.571429 36.571428H329.142857a36.571429 36.571429 0 0 1-36.571428-36.571428v-146.285715h-91.428572a18.285714 18.285714 0 0 1-18.285714-18.285714V365.714286a73.142857 73.142857 0 0 1 73.142857-73.142857h36.571429v-73.142858a36.571429 36.571429 0 0 1 36.571428-36.571428h402.285714a36.571429 36.571429 0 0 1 36.571429 36.571428v73.142858h18.285714a73.142857 73.142857 0 0 1 73.142857 73.142857v274.285714a18.285714 18.285714 0 0 1-18.285714 18.285714h-73.142857zM210.285714 438.857143h621.714286v-73.142857a45.714286 45.714286 0 0 0-45.714286-45.714286H256a45.714286 45.714286 0 0 0-45.714286 45.714286v73.142857z m530.285715-146.285714v-73.142858a9.142857 9.142857 0 0 0-9.142858-9.142857H329.142857a9.142857 9.142857 0 0 0-9.142857 9.142857v73.142858h420.571429zM676.571429 402.285714a18.285714 18.285714 0 1 1 0-36.571428 18.285714 18.285714 0 0 1 0 36.571428z m73.142857 0a18.285714 18.285714 0 1 1 0-36.571428 18.285714 18.285714 0 0 1 0 36.571428z m-420.571429 155.428572a9.142857 9.142857 0 0 0-9.142857 9.142857v237.714286a9.142857 9.142857 0 0 0 9.142857 9.142857h402.285714a9.142857 9.142857 0 0 0 9.142858-9.142857V566.857143a9.142857 9.142857 0 0 0-9.142858-9.142857H329.142857z m45.714286 82.285714h329.142857a9.142857 9.142857 0 1 1 0 18.285714h-329.142857a9.142857 9.142857 0 1 1 0-18.285714z m0 91.428571h329.142857a9.142857 9.142857 0 1 1 0 18.285715h-329.142857a9.142857 9.142857 0 1 1 0-18.285715z" fill="#ffffff" p-id="7601"></path></svg>