<svg xmlns="http://www.w3.org/2000/svg" viewBox="0 0 49.114 46.209" class="design-iconfont">
  <g transform="translate(-450.665 -2373.689)">
    <path d="M492.976,676.977a.663.663,0,0,0-.662-.634H472.08l-5.9-5.476a.66.66,0,0,0-.45-.178h-9.277a.661.661,0,0,0-.483.21l-5.3,5.652a.661.661,0,0,0-.178.482l1.325,30.217a.663.663,0,0,0,.662.634h41.163a.661.661,0,0,0,.662-.692Z" transform="translate(.178 1703)" fill-rule="evenodd" fill="#d4820d"/>
    <rect width="39.927" height="24.027" rx=".663" transform="rotate(-1.901 72131.19952833 -12431.83805218)" fill="#e2e0df"/>
    <rect width="24.027" height="39.927" rx=".662" transform="matrix(.015 -1 1 .015 453.539 2405.637)" fill="#efeff0"/>
    <path d="M494.991,680.521l-38.323-4.63a.662.662,0,0,0-.737.578l-2.724,22.538a.662.662,0,0,0,.579.737l38.323,4.631a.663.663,0,0,0,.737-.579l2.723-22.537A.663.663,0,0,0,494.991,680.521Z" transform="translate(.178 1703)" fill="#fff" fill-rule="evenodd"/>
    <path d="M499.443,674.2a.657.657,0,0,0-.5-.234H478.445a.668.668,0,0,0-.451.177l-5.9,5.477H457.775a.662.662,0,0,0-.65.534l-5.3,26.943a.662.662,0,0,0,.65.79h41.163a.663.663,0,0,0,.655-.556l5.3-32.6A.663.663,0,0,0,499.443,674.2Z" transform="translate(.178 1703)" fill="#f99f22" fill-rule="evenodd"/>
    <path d="M451.963,707.642a.662.662,0,0,0,.511.242h41.164a.663.663,0,0,0,.655-.557l1.539-9.465-44.008,9.232A.662.662,0,0,0,451.963,707.642Z" transform="translate(.178 1703)" fill="#f49418" fill-rule="evenodd"/>
    <path d="M487.955,715.264c0,.9-6.683,1.634-14.928,1.634s-14.928-.731-14.928-1.634,6.683-1.634,14.928-1.634S487.955,714.362,487.955,715.264Z" transform="translate(.178 1703)" fill="#bfc0c1" fill-rule="evenodd"/>
  </g>
</svg>
