<svg xmlns="http://www.w3.org/2000/svg" viewBox="0 0 77.48 111.024" class="design-iconfont">
  <g fill-rule="evenodd">
    <path d="M2480.146,1735.692c0,1.873-13.873,3.393-30.985,3.393s-30.986-1.52-30.986-3.393,13.87-3.391,30.986-3.391S2480.146,1733.819,2480.146,1735.692Z" transform="translate(-2412.881 -1628.062)" fill="#bfc0c1"/>
    <g fill="#185fab">
      <path d="M2440.108,1721.611v29.869a1.126,1.126,0,1,0,2.252,0v-29.869a1.126,1.126,0,1,0-2.252,0Z" transform="translate(-2382.482 -1644.441)"/>
      <path d="M2440.923,1721.3v13.808a45.031,45.031,0,0,1,8.549,2.131c2.968,1.136,6.084,2.307,9.315,1.716a.133.133,0,0,0,.045-.019v-13.787c-3.164.685-6.449-.594-9.368-1.708A44.493,44.493,0,0,0,2440.923,1721.3Z" transform="translate(-2381.352 -1643.304)"/>
      <path d="M2438.85,1757.281c3.7-1.615,4.624-3.3,4.839-8.189a13.228,13.228,0,0,0,6.247,1.747,14.039,14.039,0,0,0,6.226-1.5c.176,4.818,1.007,6.309,4.74,7.922,1.057-.788,2.126-1.556,3.214-2.284,1.22-.814,3.532-2.434,5.066-2.049l9.809,2.453a12.063,12.063,0,0,1,2.537.947c0-.661,0-1.315,0-1.878.062-17.184.143-39.778-8.573-53.772a24.507,24.507,0,0,0-9.526-9.119,32.463,32.463,0,0,0-27,0,24.511,24.511,0,0,0-9.525,9.119c-4.285,6.879-6.609,17.631-7.855,28.74a273.991,273.991,0,0,0-1.408,27.4,12.032,12.032,0,0,1,3.4-1.437c.74-.186,1.482-.415,2.215-.627,1.1-.318,2.2-.625,3.312-.9,1.94-.484,5.876-1.505,7.6-.172l4.667,3.605Zm.076-16.2a32.211,32.211,0,0,1-7.158-14.044l-.107-.551.4-.394c3.26-3.209,5.123-8.089,6.492-12.35l.239-.744.78.019c3.154.072,6.325.215,9.463.556a49.033,49.033,0,0,1,7.5,1.346,32.309,32.309,0,0,1,11.627,5.889l.432.332-.024.544a35.935,35.935,0,0,1-6.323,17.993,20.844,20.844,0,0,1-4.562,4.987,2.964,2.964,0,0,0-.239.184,11.513,11.513,0,0,1-7.509,2.849,12.071,12.071,0,0,1-7.547-3.219c-.045-.041-.091-.079-.141-.117A23.462,23.462,0,0,1,2438.926,1741.084Z" transform="translate(-2413.613 -1688.615)"/>
      <path d="M2477.526,1750.748v-6.586c.64.136,1.276.293,1.878.446a36.368,36.368,0,0,1,4.068,1.224,34.239,34.239,0,0,0,5.3,1.685v3.231Zm-46.449,0h40.814v-23.264a2.817,2.817,0,0,1,5.572-.59c.942.177,1.887.406,2.778.633a40.723,40.723,0,0,1,4.434,1.348,36.841,36.841,0,0,0,4.1,1.4v-1.51a10.368,10.368,0,0,0-7.85-10.048l-9.807-2.453c-2.011-.5-16.23,11.532-18.752,13.479l-16.872-13.028c-1.506-1.305-9.573,1.472-11.687,2a10.373,10.373,0,0,0-7.85,10.048v21.985H2429q.555-5.372,1.107-10.742Z" transform="translate(-2415.957 -1650.314)"/>
    </g>
  </g>
</svg>
