<svg xmlns="http://www.w3.org/2000/svg" viewBox="0 0 75.77 102.351" class="design-iconfont">
  <g fill-rule="evenodd">
    <path d="M2403.487,352.982c0,2.272-16.829,4.113-37.588,4.113s-37.589-1.841-37.589-4.113,16.829-4.116,37.589-4.116S2403.487,350.71,2403.487,352.982Z" transform="translate(-2328.311 -254.744)" fill="#bfc0c1"/>
    <path d="M2399.355,316.349a4.054,4.054,0,0,1,3.312,1.838,7.1,7.1,0,0,1,1.365,4.368V393.1a7.127,7.127,0,0,1-1.365,4.377,4.041,4.041,0,0,1-3.312,1.826h-66.3a4.112,4.112,0,0,1-3.329-1.826,7.107,7.107,0,0,1-1.389-4.377V322.555a7.075,7.075,0,0,1,1.389-4.368,4.094,4.094,0,0,1,3.329-1.838Zm-1.61,8.336H2334.65v66.328h63.095V324.685Zm-50.4,24.934a5.479,5.479,0,0,0,4.446-2.411,9.394,9.394,0,0,0,1.841-5.844,9.585,9.585,0,0,0-1.841-5.992,5.382,5.382,0,0,0-9,0,9.52,9.52,0,0,0-1.847,5.992,9.33,9.33,0,0,0,1.847,5.844,5.538,5.538,0,0,0,4.553,2.411Zm44.078,33.125h-.009v-22.8l-16.843-22.9-14.536,29.015-7.711-8.441-11.378,19.451v5.676Z" transform="translate(-2328.262 -316.349)" fill="#185fab"/>
  </g>
</svg>
