<svg xmlns="http://www.w3.org/2000/svg" viewBox="0 0 108.281 34.26" class="design-iconfont">
  <g fill-rule="evenodd">
    <path d="M153.448,734.6l-1.41-5.978a.585.585,0,0,1-.042-.384q.043-.641.769-.727c.455,0,.755.271.9.812l.9,4.612h.044l1.408-4.783a.9.9,0,0,1,.855-.641.959.959,0,0,1,.854.641l1.409,4.783h.042l.94-4.612a.821.821,0,0,1,.854-.812.79.79,0,0,1,.769.727,1.564,1.564,0,0,1-.044.384l-1.366,5.978a1.075,1.075,0,0,1-1.068.769,1.059,1.059,0,0,1-1.11-.725l-1.28-4.229-1.281,4.229a1.075,1.075,0,0,1-1.068.725A.955.955,0,0,1,153.448,734.6Z" transform="translate(-151.981 -701.156)" fill="#a6a7a7"/>
    <path d="M165.432,729.438a2.941,2.941,0,0,1,2.818,3.032q-.213,2.817-2.818,2.946-2.649-.126-2.819-2.946a2.9,2.9,0,0,1,2.819-3.032Zm0,1.452q-1.154.086-1.239,1.58.087,1.539,1.239,1.58,1.108-.042,1.238-1.58Q166.543,730.975,165.432,730.89Z" transform="translate(-151.981 -701.156)" fill="#a6a7a7"/>
    <path d="M169.47,734.564v-4.271c0-.485.272-.755.813-.811q.725.04.769.683a1.27,1.27,0,0,1,1.11-.683.8.8,0,0,1,.768.853q0,.429-.683.683a1.371,1.371,0,0,0-.257.086q-.981.384-.938,1.025v2.435c-.058.541-.328.81-.813.81S169.5,735.1,169.47,734.564Z" transform="translate(-151.981 -701.156)" fill="#a6a7a7"/>
    <path d="M179.063,727.816v6.748c-.029.541-.286.81-.769.81a.7.7,0,0,1-.769-.6,1.836,1.836,0,0,1-1.452.639q-2.391-.126-2.6-2.86.171-2.948,2.561-3.118a2.531,2.531,0,0,1,1.5.556v-2.178a.742.742,0,0,1,.769-.854c.483.027.74.313.769.854Zm-1.538,4.612q-.129-1.45-1.239-1.538c-.769.057-1.18.583-1.239,1.58.059,1.026.47,1.552,1.239,1.58Q177.4,734.008,177.525,732.428Z" transform="translate(-151.981 -701.156)" fill="#a6a7a7"/>
    <path d="M180.241,734.6l2.947-6.746c.056-.257.256-.385.6-.385a.689.689,0,0,1,.642.6.315.315,0,0,1-.044.127.4.4,0,0,0-.042.171l-2.9,6.747a.733.733,0,0,1-.642.3c-.426-.027-.639-.2-.639-.512A1.016,1.016,0,0,1,180.241,734.6Z" transform="translate(-151.981 -701.156)" fill="#a6a7a7"/>
    <path d="M185.6,734.564v-6.022q0-.9.813-.94h2.732a.747.747,0,0,1,.768.726c-.057.512-.312.769-.768.769h-1.922v1.58h1.793a.825.825,0,0,1,.813.769.787.787,0,0,1-.813.769h-1.793v1.665h2.006a.713.713,0,0,1,.769.725q-.084.768-.769.769h-2.816A.77.77,0,0,1,185.6,734.564Z" transform="translate(-151.981 -701.156)" fill="#a6a7a7"/>
    <path d="M190.927,734.135l1.579-1.793-1.323-1.493a.914.914,0,0,1-.213-.6q.042-.684.811-.767a.966.966,0,0,1,.556.3l1.11,1.408,1.109-1.408a.761.761,0,0,1,1.367.468,1.372,1.372,0,0,1-.213.6l-1.323,1.493,1.579,1.793a1.368,1.368,0,0,1,.214.556.669.669,0,0,1-.769.683.858.858,0,0,1-.684-.3l-1.28-1.579-1.281,1.579a.942.942,0,0,1-.684.3q-.768,0-.769-.683A.856.856,0,0,1,190.927,734.135Z" transform="translate(-151.981 -701.156)" fill="#a6a7a7"/>
    <path d="M201.714,730.42c-.056.485-.256.74-.6.769a1.684,1.684,0,0,1-.556-.127,1.945,1.945,0,0,0-.683-.172q-1.283.086-1.325,1.58c.059,1,.5,1.523,1.325,1.58a3.209,3.209,0,0,0,.769-.17,1.416,1.416,0,0,1,.384-.129.735.735,0,0,1,.683.683q-.084.94-1.922.982-2.648-.126-2.818-2.946a2.9,2.9,0,0,1,2.818-3.032Q201.629,729.567,201.714,730.42Z" transform="translate(-151.981 -701.156)" fill="#a6a7a7"/>
    <path d="M207.463,732.982H204.09a1.371,1.371,0,0,0,1.494,1.153,2.469,2.469,0,0,0,1.153-.384,1.456,1.456,0,0,1,.64-.255.717.717,0,0,1,.641.683q-.3,1.11-2.562,1.237a2.729,2.729,0,0,1-2.948-2.946,2.905,2.905,0,0,1,2.819-3.032,2.941,2.941,0,0,1,2.819,2.861q0,.726-.683.683Zm-3.417-1.024h2.52q-.213-1.2-1.239-1.239A1.3,1.3,0,0,0,204.046,731.958Z" transform="translate(-151.981 -701.156)" fill="#a6a7a7"/>
    <path d="M209.238,734.564v-6.748a.806.806,0,0,1,.77-.854.86.86,0,0,1,.812.854v6.748c-.058.541-.328.81-.812.81S209.268,735.1,209.238,734.564Z" transform="translate(-151.981 -701.156)" fill="#a6a7a7"/>
    <path d="M211.957,734.6l2.946-6.746c.056-.257.257-.385.6-.385a.688.688,0,0,1,.642.6.316.316,0,0,1-.044.127.41.41,0,0,0-.042.171l-2.9,6.747a.73.73,0,0,1-.641.3c-.427-.027-.64-.2-.64-.512A1,1,0,0,1,211.957,734.6Z" transform="translate(-151.981 -701.156)" fill="#a6a7a7"/>
    <path d="M217.32,734.6v-6.149a.762.762,0,0,1,.813-.854H220.1a2.61,2.61,0,1,1,.042,5.211h-1.2V734.6a.724.724,0,0,1-.811.769c-.541,0-.813-.257-.813-.769Zm1.624-5.551v2.306h1.109a1.082,1.082,0,0,0,1.112-1.153,1.114,1.114,0,0,0-1.112-1.153Z" transform="translate(-151.981 -701.156)" fill="#a6a7a7"/>
    <path d="M223.965,734.6v-6.149a.761.761,0,0,1,.812-.854h1.965a2.61,2.61,0,1,1,.042,5.211h-1.2V734.6a.724.724,0,0,1-.811.769q-.812,0-.812-.769Zm1.623-5.551v2.306h1.11a1.082,1.082,0,0,0,1.111-1.153,1.114,1.114,0,0,0-1.111-1.153Z" transform="translate(-151.981 -701.156)" fill="#a6a7a7"/>
    <path d="M231.89,734.6V729.1H230.7q-.6,0-.64-.769.042-.683.64-.726h4.058a.729.729,0,0,1,.725.726q-.042.768-.725.769h-1.2V734.6a.769.769,0,0,1-.852.769C232.162,735.374,231.89,735.117,231.89,734.6Z" transform="translate(-151.981 -701.156)" fill="#a6a7a7"/>
    <path d="M236.058,734.6l2.947-6.746c.056-.257.257-.385.6-.385a.689.689,0,0,1,.642.6.315.315,0,0,1-.044.127.41.41,0,0,0-.042.171l-2.9,6.747a.732.732,0,0,1-.642.3c-.426-.027-.639-.2-.639-.512A1.016,1.016,0,0,1,236.058,734.6Z" transform="translate(-151.981 -701.156)" fill="#a6a7a7"/>
    <path d="M241.422,734.6v-6.149a.762.762,0,0,1,.813-.854H244.2a2.61,2.61,0,1,1,.042,5.211h-1.195V734.6a.724.724,0,0,1-.811.769c-.541,0-.813-.257-.813-.769Zm1.624-5.551v2.306h1.109a1.083,1.083,0,0,0,1.112-1.153,1.114,1.114,0,0,0-1.112-1.153Z" transform="translate(-151.981 -701.156)" fill="#a6a7a7"/>
    <path d="M248.067,734.564v-6.15a.8.8,0,0,1,.812-.812h1.835q3.673.172,3.845,3.972-.215,3.629-3.759,3.8h-1.879c-.568-.029-.854-.3-.854-.81Zm1.623-5.467v4.783h1.11q1.92-.043,2.049-2.348-.04-2.392-2.177-2.435Z" transform="translate(-151.981 -701.156)" fill="#a6a7a7"/>
    <path d="M255.906,734.6v-6.149a.823.823,0,0,1,.813-.854h2.817a.73.73,0,0,1,.727.726q-.043.768-.727.769H257.53v1.58h1.707a.764.764,0,0,1,.769.769q-.086.768-.769.769H257.53v2.39a.724.724,0,0,1-.811.769C256.178,735.374,255.906,735.117,255.906,734.6Z" transform="translate(-151.981 -701.156)" fill="#a6a7a7"/>
    <path d="M177.818,703.936a3.438,3.438,0,0,1-.415-1.52c-.138-.459.047-.783.551-.966a1.258,1.258,0,0,1,1.381.345q.138.416.345,1.31a3.867,3.867,0,0,0,.347.831h5.523a1,1,0,0,1,.967.966c-.048.642-.348.966-.9.966a7.3,7.3,0,0,0-1.449.068h-.209a15.891,15.891,0,0,1-3.52,7.111,18.59,18.59,0,0,0,5.246,2.486.877.877,0,0,1,.621,1.243,1.138,1.138,0,0,1-1.378.553,23.013,23.013,0,0,1-6.077-2.763,22.246,22.246,0,0,1-7.249,2.97,1.011,1.011,0,0,1-1.243-.76q-.137-.969.76-1.1a19.446,19.446,0,0,0,5.938-2.554,16.733,16.733,0,0,1-3.729-7.249h-2.138c-.507,0-.783-.324-.831-.966.048-.6.324-.922.831-.966Zm1.034,7.938a14.394,14.394,0,0,0,2.969-6.006h-6.35A14.28,14.28,0,0,0,178.852,711.874Z" transform="translate(-151.981 -701.156)" fill="#1a1311"/>
    <path d="M196.43,706.145h2.416v-4.073c0-.507.3-.784.9-.828.6.044.919.321.966.828v4.073h1.656c-.69-.094-.828-.483-.413-1.175a11.192,11.192,0,0,0,1.311-2.621c.277-.554.781-.622,1.517-.209.324.323.253.945-.206,1.864a6.139,6.139,0,0,1-1.382,2.141,1.244,1.244,0,0,1,1.176,1.173v8.147a1.343,1.343,0,0,1-1.52,1.517h-7.317c-.507-.045-.783-.369-.828-.966a.823.823,0,0,1,.828-.828h6.7a.184.184,0,0,0,.209-.206v-2.625H196.7a.854.854,0,0,1-.966-.966,1.047,1.047,0,0,1,1.1-.9h5.593v-2.277a.451.451,0,0,0-.209-.209h-5.8a.865.865,0,0,1-.969-.9.943.943,0,0,1,.969-.966Zm-6.144-1.726h1.379V702.14c0-.507.324-.76.966-.76.6.047.922.323.969.83v2.209h.966c.551.044.851.389.9,1.034-.044.645-.344.966-.9.966H193.6v.277q.9.9,2,2.209a1.4,1.4,0,0,1,.209,1.588.866.866,0,0,1-1.382,0c-.276-.321-.553-.666-.827-1.034v7.455c-.047.459-.368.713-.969.76-.642-.047-.966-.3-.966-.76v-5.385a4.564,4.564,0,0,1-.967,1.794,1.114,1.114,0,0,1-1.587.277q-.618-.552,0-1.588a16.167,16.167,0,0,0,2.347-5.593h-1.172a.926.926,0,0,1-1.037-.966,1,1,0,0,1,1.037-1.034Zm6.074.9q-.624-1.035-1.382-2.277a.714.714,0,0,1,.277-1.105,1.138,1.138,0,0,1,1.381.277,9.846,9.846,0,0,1,1.311,2.415c.186.6.048,1.014-.412,1.243A.877.877,0,0,1,196.36,705.315Z" transform="translate(-151.981 -701.156)" fill="#1a1311"/>
    <path d="M214.833,702.278H222.7a1.067,1.067,0,0,1,1.037,1.037.976.976,0,0,1-1.037.966h-.966v10.836a2.091,2.091,0,0,1-1.659,2.074,6.167,6.167,0,0,1-4.071-.348c-.644-.321-.851-.736-.621-1.24a1.325,1.325,0,0,1,1.588-.554,3.893,3.893,0,0,0,1.932.345c.506,0,.783-.392.828-1.172v-9.941h-4.9c-.6,0-.919-.324-.966-.966a.977.977,0,0,1,.966-1.037Zm-6.073,2.071h1.587V702c0-.507.321-.78.966-.828.6.048.919.321.966.828v2.348h1.726c.507.047.784.368.828.966-.044.645-.321.966-.828.966h-1.726v3.178a2.638,2.638,0,0,0,.9-.277c.138-.047.274-.091.412-.139a1.045,1.045,0,0,1,1.175.69.914.914,0,0,1-.553,1.175c-.642.277-1.173.483-1.588.621a2.064,2.064,0,0,1-.345.068v4.074q-.071,1.794-2.415,1.658a3.041,3.041,0,0,1-1.587-.415.913.913,0,0,1-.416-1.175,1.05,1.05,0,0,1,1.243-.413c.875.23,1.287.045,1.243-.553v-2.622a4.852,4.852,0,0,1-1.243.274c-.783.186-1.29,0-1.52-.551-.138-.645.186-1.081.967-1.31a15.721,15.721,0,0,0,1.8-.554v-3.729H208.76c-.554,0-.852-.321-.9-.966A.917.917,0,0,1,208.76,704.349Z" transform="translate(-151.981 -701.156)" fill="#1a1311"/>
    <path d="M226.679,703.315c-.091-.692.23-1.061.967-1.1a49.551,49.551,0,0,0,5.039-1.037c.416-.091.76.186,1.037.828q.207.9-.415,1.1c-1.287.325-2.348.578-3.175.76-.69.139-1.129.23-1.311.277-.139,0-.186.068-.139.207v3.8h4.212c.413.047.642.415.69,1.1-.048.645-.3.966-.76.966h-4.142v3.935c-.047.23-.023.368.068.415.047.048.209.024.486-.068a19.544,19.544,0,0,0,2.966-1.036,1,1,0,0,1,1.382.415.99.99,0,0,1-.551,1.311,22.818,22.818,0,0,1-3.314,1.037,4.721,4.721,0,0,0-.969.344q-2.138.552-2.071-1.243V703.315Zm7.665-.071q-.138-1.449,1.1-1.381h4.969q1.59-.067,1.452,1.381v11.322q.066,3.036-4.418,1.727c-.6-.186-.83-.531-.692-1.037.186-.69.577-.99,1.175-.9q2.209.827,1.933-.83v-9.32a.44.44,0,0,0-.345-.274h-2.9c-.23.044-.322.136-.275.274v12.633c-.047.416-.391.622-1.036.622s-.966-.206-.966-.622Z" transform="translate(-151.981 -701.156)" fill="#1a1311"/>
  </g>
</svg>
