<svg xmlns="http://www.w3.org/2000/svg" viewBox="0 0 98.341 35.457" class="design-iconfont">
  <g fill-rule="evenodd">
    <path d="M158.428,802.783v-1.2q0-.469.6-.512.6.042.639.512v1.2h.6c.284.03.455.257.512.683,0,.456-.142.684-.429.684h-.683v1.709q.771-.3.94,0a3.4,3.4,0,0,1,.172.468q.17.385-1.112.854v2.734q-.04,1.707-2.3.982a.658.658,0,0,1-.342-.769c.085-.341.286-.483.6-.426.571.2.841.127.813-.214v-1.836c-.058.029-.242.1-.556.213a.594.594,0,0,1-.854-.384c-.113-.341.058-.613.514-.811.113-.03.411-.142.9-.343V804.15h-.854c-.343,0-.513-.228-.513-.684,0-.426.17-.653.513-.683Zm4.484-.3a1.131,1.131,0,0,1,.042-.257c.029-.113.057-.213.086-.3.113-.6.4-.868.854-.811a.574.574,0,0,1,.554.683.62.62,0,0,0-.042.257c-.029.17-.056.312-.086.427h1.58c.541.029.826.269.855.725v6.748c.029.655-.243.953-.811.9H161.8c-.6,0-.882-.286-.853-.855v-6.661q0-.812.9-.854Zm-.385,1.324c-.171,0-.256.071-.256.213v1.793h3.2v-1.793a.274.274,0,0,0-.213-.213Zm0,5.849h2.648a.273.273,0,0,0,.3-.255V807.14h-3.2V809.4C162.241,809.6,162.327,809.687,162.527,809.658Z" transform="translate(-156.984 -775.782)" fill="#a6a7a7"/>
    <path d="M172.461,802.443c-.372,0-.57-.2-.6-.6a.659.659,0,0,1,.642-.64h4.91q.94-.043.855.77v.852q.043,1.837-1.239,1.795-2.091.169-1.921-.556c-.085-.483.3-.7,1.152-.639l.044.041q.726.045.725-.47v-.553h-1.708a4.655,4.655,0,0,1-2.348,2.133c-.456.2-.8.171-1.026-.084a.608.608,0,0,1,.129-.94.763.763,0,0,0,.213-.086,3.48,3.48,0,0,0,1.58-1.023Zm-2.99,5.679c-.512.027-.754-.228-.727-.769v-5.167q-.126-.94.9-.855h1.281q.768,0,.725.727v5.3q.044.852-.769.769Zm.426-5.6v1.537h.6v-1.537Zm3.032,5.637q-.768.043-.725-.725v-1.8q0-.682.854-.725h4.227a.681.681,0,0,1,.77.769v1.751c.027.541-.228.781-.77.725Zm-3.032-1.239h.6v-1.666h-.6v1.666Zm6.919-.811h-3.373v.854h3.373v-.854Zm-8.156,4.143c.057-.115.355-.612.9-1.5a.585.585,0,0,1,.768-.255.505.505,0,0,1,.3.684,5.126,5.126,0,0,1-.683,1.153c-.086.142-.171.3-.257.468a.639.639,0,0,1-.811.172.482.482,0,0,1-.213-.726Zm8.8.426a7.838,7.838,0,0,1-.6-.9,4.082,4.082,0,0,1-.342-.6.487.487,0,0,1,.171-.684.737.737,0,0,1,.9,0,4.857,4.857,0,0,0,.213.468c.429.684.684,1.083.769,1.2.086.284-.041.526-.384.725a.572.572,0,0,1-.725-.214Zm-5.765-.127V809.1a.64.64,0,0,1,.554-.683.556.556,0,0,1,.641.553v1.538q-.043.471-.6.514c-.4,0-.6-.157-.6-.47Zm2.861.213a7.865,7.865,0,0,1-.471-1.623.536.536,0,0,1,.429-.684.641.641,0,0,1,.725.47c.171.628.3,1.125.384,1.495Q175.407,811.366,174.553,810.769Z" transform="translate(-156.984 -775.782)" fill="#a6a7a7"/>
    <path d="M179.122,809.231l2.946-6.746c.057-.257.257-.385.6-.385a.688.688,0,0,1,.641.6.3.3,0,0,1-.044.127.407.407,0,0,0-.041.171l-2.9,6.748a.732.732,0,0,1-.641.3c-.426-.027-.64-.2-.64-.512A1.02,1.02,0,0,1,179.122,809.231Z" transform="translate(-156.984 -775.782)" fill="#a6a7a7"/>
    <path d="M184.5,803.126h1.282v-1.709c0-.257.184-.385.554-.385s.57.128.6.385v1.709h1.153q.94.6.044,1.2h-1.2v.47q1.024,1.323,1.452,1.964a.888.888,0,0,1-.042,1.024.519.519,0,0,1-.813-.127,8.843,8.843,0,0,1-.6-.94v4.013c-.028.286-.228.443-.6.471-.37-.028-.554-.172-.554-.427V807.1a4.769,4.769,0,0,1-.727,1.239q-.51.639-.982.47-.47-.342-.085-.982a10.325,10.325,0,0,0,1.623-3.5H184.5c-.312,0-.483-.2-.512-.6.029-.37.2-.571.512-.6Zm4.185-.641q-.042-.982.813-.983h3.159a.781.781,0,0,1,.854.855v7.558q0,.9-.812.9h-2.947q-1.108,0-1.067-.938v-7.388Zm1.2.171v1.494h2.432v-1.494Zm2.432,4.141v-1.452h-2.432V806.8Zm-2.432,2.861h2.432v-1.665h-2.432Z" transform="translate(-156.984 -775.782)" fill="#a6a7a7"/>
    <path d="M200.884,803.295v-1.751c0-.313.2-.483.6-.512.4.029.613.2.642.512v1.751h2.819c.313.029.482.243.512.642-.03.4-.2.6-.512.6h-7.261v1.325h4.528c.541,0,.81.255.81.767v3.93c-.027.313-.242.483-.639.512-.4-.029-.6-.2-.6-.512v-3.2c0-.172-.1-.272-.3-.3H197.6a16.053,16.053,0,0,1-.641,3.458.779.779,0,0,1-.769.6q-.6-.129-.47-.683a16.613,16.613,0,0,0,.769-4.526v-4.185c0-.285.2-.441.6-.47.37.029.571.185.6.47v1.579Z" transform="translate(-156.984 -775.782)" fill="#a6a7a7"/>
    <path d="M206.009,809.231l2.947-6.746c.056-.257.256-.385.6-.385a.69.69,0,0,1,.642.6.316.316,0,0,1-.044.127.394.394,0,0,0-.042.171l-2.9,6.748a.735.735,0,0,1-.642.3q-.639-.04-.639-.512A1.008,1.008,0,0,1,206.009,809.231Z" transform="translate(-156.984 -775.782)" fill="#a6a7a7"/>
    <path d="M217.924,810.769v-8.456q-.042-.683.6-.683H220.1a.7.7,0,0,1,.639.641v6.321q0,1.367-1.153,1.2c-.312.027-.512-.056-.6-.257v1.239c-.027.284-.213.441-.554.47q-.513-.043-.513-.47Zm1.751-2.478v-5.422a.113.113,0,0,0-.128-.128h-.426a.114.114,0,0,0-.13.128v5.807a.472.472,0,0,1,.343-.128c.2.057.313-.029.341-.257Zm-4.739-5.978c-.03-.4.184-.626.639-.683a10.308,10.308,0,0,0,1.58-.384.177.177,0,0,0,.129-.043q.812.171.384.983c-.286.113-.668.242-1.153.384-.228.057-.384.1-.47.128a.139.139,0,0,0-.086.127V806.8c-.027.142.03.186.172.128l.512-.255v-3.375q0-.426.512-.47a.5.5,0,0,1,.513.47v3.8q.042,3.246-2.6,3.887a.544.544,0,0,1-.725-.385.532.532,0,0,1,.426-.683,2.076,2.076,0,0,0,1.793-1.879l-.725.3c-.6.257-.9.042-.9-.641v-5.381Zm-3.845.257c-.284-.029-.441-.228-.468-.6.027-.4.184-.613.468-.642h3.374c.257.029.4.242.427.642-.028.4-.17.6-.427.6h-.213v5.167q.426-.171.6.341t-.257.683c-.057.03-.113.059-.171.086a.685.685,0,0,1-.17.044v1.665c-.029.313-.228.483-.6.512-.372-.029-.556-.2-.556-.512v-1.239a17.333,17.333,0,0,1-1.922.641c-.314.028-.5-.144-.554-.513a.569.569,0,0,1,.468-.6V802.57Zm2.008,0h-.855v1.068h.855V802.57Zm-.855,3.289h.855v-1.068h-.855v1.068Zm.855,2.348v-1.2h-.855v1.5A4.491,4.491,0,0,0,213.1,808.207Z" transform="translate(-156.984 -775.782)" fill="#a6a7a7"/>
    <path d="M223.586,803.04q-.639,0-.683-.683a.679.679,0,0,1,.683-.727h7.388c.37.029.583.271.642.727-.059.456-.272.683-.642.683H227.9v1.58h3.5q.557.04.6.683-.044.683-.6.683h-3.287a7.65,7.65,0,0,0,3.5,3.544c.683.314.9.683.639,1.112q-.257.6-1.237.213a7.989,7.989,0,0,1-3.673-3.374,9.271,9.271,0,0,1-3.417,3.288c-.653.4-1.1.412-1.324.042q-.47-.724.215-.982a7.038,7.038,0,0,0,3.586-3.843h-3.074a.609.609,0,0,1-.683-.641.629.629,0,0,1,.639-.725h3.289v-1.58Z" transform="translate(-156.984 -775.782)" fill="#a6a7a7"/>
    <path d="M236.039,803.552a9.8,9.8,0,0,1-1.494-1.281.569.569,0,0,1,0-.854.824.824,0,0,1,.982-.042,12.973,12.973,0,0,1,1.452,1.281.738.738,0,0,1-.085.938.6.6,0,0,1-.855-.042Zm2.008-.727c-.343,0-.527-.2-.556-.6a.567.567,0,0,1,.556-.6H242.4q1.025,0,.981.9v2.862q0,1.065-.9.982h-3.159c-.142.027-.213.085-.213.171V809.4c0,.313.169.47.512.47h1.964q1.153.128.982-1.452a.634.634,0,0,1,.556-.727.7.7,0,0,1,.639.727,4.968,4.968,0,0,1-.085.982,4.6,4.6,0,0,1-.086.6q-.213,1.11-2.518,1.068h-1.367q-1.8,0-1.751-1.11v-3.844q-.087-1.024.939-.982h2.99c.171.029.256-.057.256-.257V803.04c0-.115-.071-.186-.214-.215Zm-3.759,2.351c-.34,0-.512-.2-.512-.6s.172-.612.512-.639h1.068q.768.04.769.938l-.128,4.1c0,.086.027.086.084,0a4.438,4.438,0,0,0,.556-.81.56.56,0,0,1,.81-.086.615.615,0,0,1,.086.813,5.885,5.885,0,0,1-1.323,1.792q-1.281.77-1.452-.683l.128-4.611c-.028-.142-.086-.213-.171-.213Z" transform="translate(-156.984 -775.782)" fill="#a6a7a7"/>
    <path d="M253.145,802.57a.265.265,0,0,0-.127-.127h-6.534c-.313,0-.47-.186-.47-.556a.532.532,0,0,1,.514-.556h7.046c.482,0,.725.213.725.642v2.988h.512c.286.029.455.215.514.555-.029.37-.186.556-.47.556h-.769q.639.3.257.938a7.014,7.014,0,0,1-1.283,1.325c-.113.086-.184.142-.213.171a6.4,6.4,0,0,0,1.964,1.11.628.628,0,0,1,.384.811q-.254.469-.9.256a6.891,6.891,0,0,1-3.289-2.392v1.667q.216,1.579-2.476,1.068a.68.68,0,0,1-.6-.813c.113-.313.4-.426.855-.34.71.142,1.053.042,1.024-.3v-.94a8.848,8.848,0,0,1-3.887,1.494.7.7,0,0,1-.725-.426.648.648,0,0,1,.512-.728,12.77,12.77,0,0,0,2.947-1.023,1.607,1.607,0,0,1,.214-.086,1.091,1.091,0,0,1,.939-.257v-1.536h-2.9a6.56,6.56,0,0,1,1.366,1.237.589.589,0,0,1-.169.769.572.572,0,0,1-.769-.085c-.428-.4-.74-.684-.94-.853a.646.646,0,0,1-.3-.343.461.461,0,0,1,.257-.725h-.6c-.343,0-.514-.186-.514-.556a.5.5,0,0,1,.514-.555h7.386v-.684h-6.276q-.512,0-.512-.553a.5.5,0,0,1,.512-.556h6.276v-.6Zm-2.135,3.5v.3a8.178,8.178,0,0,0,.984,1.281,6.335,6.335,0,0,0,1.066-1.068v-.042a.892.892,0,0,1,.6-.47Z" transform="translate(-156.984 -775.782)" fill="#a6a7a7"/>
    <path d="M172.215,791.608q-1.728.071-1.52-1.379V778.353c-.092-1.149.391-1.7,1.449-1.655H184.02c1.1-.092,1.632.459,1.588,1.655v11.876c.091,1.01-.439,1.473-1.588,1.379Zm.827-13.255c-.368,0-.53.162-.483.483V789.4c-.047.415.139.6.554.553H183.26c.321.045.483-.115.483-.483V778.907c0-.368-.162-.554-.483-.554Zm3.8,3.108a5.07,5.07,0,0,0,1.381.621q.483-.207.9-.415c.091-.044.135-.092.135-.139a1.067,1.067,0,0,1-.274-.067Zm-3.314-.554c.277-.183.575-.389.9-.619a20.563,20.563,0,0,0,2.07-1.52,1,1,0,0,1,1.382,0,.809.809,0,0,1,.068,1.034h3.935a1.032,1.032,0,0,1,.9.486,1.072,1.072,0,0,1-.415,1.034,11.319,11.319,0,0,1-2.071,1.449,5.313,5.313,0,0,0,1.52.415c.46.048.8.092,1.034.139a.86.86,0,0,1,.692,1.172c-.094.507-.462.713-1.1.622a17.98,17.98,0,0,1-4.074-1.034A17.983,17.983,0,0,1,173.8,785.4q-1.1.207-1.1-.828c-.139-.507.115-.831.76-.966a13.214,13.214,0,0,0,2.969-.692,5.533,5.533,0,0,1-1.52-.828c-.23.139-.321.206-.277.206a.827.827,0,0,1-1.105-.138q-.688-.69,0-1.243Zm1.659,6.492c.138-.507.527-.716,1.172-.622,1.564.274,3.084.622,4.557,1.034a.888.888,0,0,1,.621,1.037q-.277.9-1.1.621-1.035-.277-3.037-.692c-.554-.138-1.061-.274-1.52-.412q-.968-.141-.689-.966Zm4.969-1.382a.62.62,0,0,1-.828.551,9.553,9.553,0,0,1-1.311-.274,1.358,1.358,0,0,1-.621-.139q-.761-.069-.554-.965c.091-.369.415-.531.966-.483a11.27,11.27,0,0,1,1.935.483A.71.71,0,0,1,180.153,786.017Z" transform="translate(-156.984 -775.782)" fill="#1a1311"/>
    <path d="M197.522,779.458v-2.831c0-.507.324-.781.966-.828.645.047.989.321,1.037.828v2.831h4.556c.507.047.781.391.828,1.036-.047.645-.321.967-.828.967H192.343V783.6h7.32q1.313,0,1.311,1.24V791.2c-.044.507-.392.781-1.034.828-.645-.047-.969-.321-.969-.828v-5.178c0-.277-.159-.439-.483-.483h-6.28a25.921,25.921,0,0,1-1.037,5.591,1.259,1.259,0,0,1-1.243.966q-.967-.208-.76-1.1a26.851,26.851,0,0,0,1.243-7.316V776.9c0-.46.324-.713.966-.76.6.047.922.3.966.76v2.554Z" transform="translate(-156.984 -775.782)" fill="#1a1311"/>
    <path d="M214.546,776.9h7.87a1.065,1.065,0,0,1,1.037,1.037.975.975,0,0,1-1.037.966h-.966v10.836a2.09,2.09,0,0,1-1.658,2.074,6.167,6.167,0,0,1-4.071-.348c-.645-.321-.851-.736-.621-1.24a1.324,1.324,0,0,1,1.587-.554,3.9,3.9,0,0,0,1.933.345c.506,0,.783-.392.827-1.172v-9.941h-4.9c-.6,0-.919-.324-.966-.966a.977.977,0,0,1,.966-1.037Zm-6.073,2.071h1.587v-2.348c0-.507.321-.781.966-.828.6.047.919.321.966.828v2.348h1.726q.761.07.828.966c-.044.645-.321.966-.828.966h-1.726v3.178a2.643,2.643,0,0,0,.9-.277l.412-.138a1.044,1.044,0,0,1,1.175.689.914.914,0,0,1-.553,1.175q-.965.415-1.588.621a2.1,2.1,0,0,1-.345.068V790.3q-.07,1.794-2.415,1.658a3.041,3.041,0,0,1-1.587-.415.912.912,0,0,1-.416-1.175,1.05,1.05,0,0,1,1.243-.413c.875.23,1.287.045,1.243-.553v-2.622a4.809,4.809,0,0,1-1.243.274c-.783.186-1.29,0-1.52-.551-.138-.645.186-1.081.966-1.31a15.69,15.69,0,0,0,1.8-.554v-3.729h-1.587c-.554,0-.852-.321-.9-.966A.917.917,0,0,1,208.473,778.975Z" transform="translate(-156.984 -775.782)" fill="#1a1311"/>
    <path d="M226.392,777.941q-.137-1.039.966-1.1a49.488,49.488,0,0,0,5.04-1.037q.623-.137,1.037.828.207.9-.415,1.1c-1.287.325-2.348.578-3.176.761-.689.138-1.128.229-1.31.276-.139,0-.186.068-.139.207v3.8h4.212q.62.07.689,1.1c-.047.645-.3.966-.759.966H228.4v3.935c-.047.23-.023.368.068.415.047.048.209.024.486-.068a19.444,19.444,0,0,0,2.966-1.036,1,1,0,0,1,1.381.415.99.99,0,0,1-.55,1.311,22.834,22.834,0,0,1-3.314,1.037,4.718,4.718,0,0,0-.969.344q-2.139.554-2.071-1.243V777.941Zm7.664-.071q-.137-1.449,1.1-1.381h4.969q1.59-.068,1.452,1.381v11.322q.066,3.036-4.418,1.727-.9-.279-.692-1.037c.185-.69.577-.99,1.175-.9q2.209.826,1.932-.83v-9.32a.436.436,0,0,0-.344-.274h-2.9c-.229.044-.321.136-.274.274v12.633c-.047.416-.391.622-1.036.622s-.967-.206-.967-.622Z" transform="translate(-156.984 -775.782)" fill="#1a1311"/>
  </g>
</svg>
