<svg xmlns="http://www.w3.org/2000/svg" viewBox="0 0 88.292 100.612" class="design-iconfont">
  <g fill-rule="evenodd">
    <path d="M2407.1,442.936c0,2.261-16.749,4.1-37.411,4.1s-37.411-1.835-37.411-4.1,16.75-4.094,37.411-4.094S2407.1,440.674,2407.1,442.936Z" transform="translate(-2325.67 -346.42)" fill="#bfc0c1"/>
    <path d="M2393.758,404.92a3.218,3.218,0,0,1,2.629,1.458,5.631,5.631,0,0,1,1.081,3.462V465.8a5.67,5.67,0,0,1-1.081,3.474,3.208,3.208,0,0,1-2.629,1.449h-52.587a3.262,3.262,0,0,1-2.643-1.449,5.658,5.658,0,0,1-1.1-3.474v-2.611h5.007v.957h50.046V411.532H2373.4V404.92Zm-6.286,52.665h-.01V439.5L2374.1,421.334l-.7,1.407v34.844Z" transform="translate(-2309.176 -393.461)" fill="#185fab"/>
    <path d="M2381.455,399.929a3.219,3.219,0,0,1,2.629,1.458,5.639,5.639,0,0,1,1.081,3.462v55.96a5.671,5.671,0,0,1-1.081,3.471,3.208,3.208,0,0,1-2.629,1.449h-52.588a3.261,3.261,0,0,1-2.642-1.449,5.655,5.655,0,0,1-1.1-3.471v-55.96a5.623,5.623,0,0,1,1.1-3.462,3.249,3.249,0,0,1,2.642-1.458Zm-1.277,6.612h-50.046v52.613h50.046V406.541Zm-39.973,19.775a4.347,4.347,0,0,0,3.527-1.913,7.456,7.456,0,0,0,1.46-4.633,7.619,7.619,0,0,0-1.46-4.753,4.27,4.27,0,0,0-7.139,0,7.54,7.54,0,0,0-1.467,4.753,7.378,7.378,0,0,0,1.467,4.633,4.382,4.382,0,0,0,3.612,1.913Zm34.963,26.278h-.009V434.507l-13.36-18.164-11.531,23.015-6.113-6.7-9.028,15.429v4.5Z" transform="translate(-2325.123 -399.929)" fill="#185fab"/>
  </g>
</svg>
