<svg xmlns="http://www.w3.org/2000/svg" viewBox="0 0 102.346 102.349" class="design-iconfont">
  <g fill-rule="evenodd">
    <path d="M659.254,2050.377v45.486a5.684,5.684,0,0,1-5.686,5.686h-68.23a5.685,5.685,0,0,1-5.686-5.686v-45.486a5.686,5.686,0,0,1,5.686-5.686h39.816c0-.049-.014-.095-.014-.142a5.686,5.686,0,0,1,5.686-5.686h17.058a5.684,5.684,0,0,1,5.684,5.686c0,.047-.012.093-.012.142h.012a5.685,5.685,0,0,1,5.686,5.686Zm-85.288,56.858H664.94v-85.453H602.394a5.684,5.684,0,0,1-5.686,5.684H579.652a5.685,5.685,0,0,1-5.686-5.684v85.453Zm90.974-96.661H573.966a5.686,5.686,0,0,0-5.686,5.686v90.975a5.688,5.688,0,0,0,5.686,5.688H664.94a5.688,5.688,0,0,0,5.686-5.688v-90.975A5.687,5.687,0,0,0,664.94,2010.575Z" transform="translate(-568.28 -2010.575)" fill="#185fab"/>
    <path d="M587.789,2058.271c-3.214,0-5.37-2.808-5.858-8.749,1.789-2.562,3.825-3.5,5.575-3.5,3.214,0,4.922,2.156,4.922,6.022s-2.033,6.227-4.639,6.227Zm8.506-24.25a10.061,10.061,0,0,0-7.487-3.217c-5.9,0-11.312,4.6-11.312,16.114,0,10.172,4.639,14.935,10.335,14.935,4.883,0,8.951-3.866,8.951-9.808,0-6.347-3.377-9.439-8.422-9.439a9,9,0,0,0-6.51,3.458c.2-8.545,3.377-11.435,7.2-11.435a6.433,6.433,0,0,1,4.679,2.24Z" transform="translate(-556.107 -1983.856)" fill="#fff"/>
    <path d="M591.838,2046.822a44.1,44.1,0,0,1,7.16,10.172l3.46-2.156c-1.3-2.931-4.558-7-7.406-9.97l-3.214,1.954Zm31.981-9.237H614.5v-8.341h-4.068v8.341H587.524v3.785h22.909v19.936c0,.938-.325,1.263-1.3,1.263-1.1.042-4.558.042-8.137-.082a17.813,17.813,0,0,1,1.708,4.231c4.312,0,7.445-.121,9.276-.773,1.792-.649,2.523-1.831,2.523-4.6V2041.37h9.318Z" transform="translate(-542.862 -1985.916)" fill="#fff"/>
  </g>
</svg>
