<svg xmlns="http://www.w3.org/2000/svg" viewBox="0 0 130.766 35.414" class="design-iconfont">
  <g fill-rule="evenodd">
    <path d="M144.44,877.786a2.109,2.109,0,0,0,.257-.172,8.008,8.008,0,0,0,1.151-.94,1,1,0,0,0,.129-.169,1.614,1.614,0,0,1,.939-.6c.342,0,.526.143.556.426h2.392q.938.086.512,1.24a6.674,6.674,0,0,1-5.424,3.416c-.4.027-.64-.086-.726-.343a.588.588,0,0,1,.427-.725,7.5,7.5,0,0,0,1.58-.342,8.785,8.785,0,0,0-.64-1.154,1.189,1.189,0,0,1-.982.429q-.768-.3-.171-1.068Zm-2.435-.727a16.028,16.028,0,0,1,.769,1.88v-2.478c0-.313.2-.483.6-.512.37.029.57.2.6.512v8.883a.566.566,0,0,1-.6.555c-.4-.029-.6-.213-.6-.555v-2.136q-.173.257-.683.94a1.532,1.532,0,0,0-.213.341.775.775,0,0,1-.94.044.647.647,0,0,1,.044-.9c.056-.085.184-.271.384-.555q.555-.768.938-1.367l.044-.086a1.36,1.36,0,0,1,.426-.512v-1.665c-.342.456-.654.47-.94.042l-.852-2.05q-.216-.426.254-.639a.649.649,0,0,1,.769.255Zm5.295,2.05a4.811,4.811,0,0,0,1.453-1.2.526.526,0,0,0,.129-.3c0-.056-.059-.1-.171-.127h-1.965l-.3.255c.311.514.6.969.852,1.367Zm1.411,2.093v-.9c0-.343.2-.541.6-.6.4.029.612.215.64.556v.94h.384c.313.028.485.228.514.6-.029.4-.2.6-.514.6h-.384v2.435q.128,1.194-1.066,1.153a5.406,5.406,0,0,1-1.837-.257q-.6-.213-.514-.725a.691.691,0,0,1,.813-.385q1.536.258,1.367,0V882.4h-2.393a5.572,5.572,0,0,1,.684,1.409.628.628,0,0,1-.3.727.509.509,0,0,1-.726-.213.038.038,0,0,1-.043-.044,7.522,7.522,0,0,0-.512-1.068c-.257-.37-.157-.639.3-.811h-1.068c-.341,0-.512-.2-.512-.6a.519.519,0,0,1,.512-.6Z" transform="translate(-140.777 -850.613)" fill="#a6a7a7"/>
    <path d="M156.295,877.274c-.372,0-.57-.2-.6-.6a.656.656,0,0,1,.641-.639h4.91q.94-.043.855.769v.853q.043,1.836-1.239,1.794-2.091.17-1.92-.555c-.086-.483.3-.7,1.151-.64,0,0,.015.013.044.042q.726.044.725-.47v-.554h-1.707a4.656,4.656,0,0,1-2.349,2.133c-.455.2-.8.172-1.026-.083a.608.608,0,0,1,.13-.941.806.806,0,0,0,.213-.085,3.491,3.491,0,0,0,1.579-1.024Zm-2.99,5.679c-.512.027-.754-.228-.727-.769v-5.167c-.083-.627.215-.911.9-.855h1.281c.512,0,.755.243.726.727v5.3q.043.853-.77.769Zm.427-5.6V878.9h.6v-1.538Zm3.032,5.637q-.77.043-.726-.725v-1.8c0-.455.284-.7.855-.725h4.227a.68.68,0,0,1,.769.769v1.751c.027.541-.228.781-.769.725Zm-3.032-1.239h.6v-1.665h-.6v1.665Zm6.918-.811h-3.373v.855h3.373v-.855Zm-8.155,4.143q.084-.171.9-1.5a.587.587,0,0,1,.769-.255.507.507,0,0,1,.3.684,5.141,5.141,0,0,1-.684,1.153c-.085.142-.171.3-.257.468a.637.637,0,0,1-.81.172q-.471-.3-.213-.726Zm8.8.427a7.927,7.927,0,0,1-.6-.9,4.082,4.082,0,0,1-.342-.6.488.488,0,0,1,.171-.684.738.738,0,0,1,.9,0,4.7,4.7,0,0,0,.213.469c.428.683.683,1.082.769,1.2.085.284-.042.526-.385.725a.571.571,0,0,1-.725-.213Zm-5.765-.128v-1.452a.64.64,0,0,1,.554-.683.557.557,0,0,1,.642.554v1.538c-.03.313-.228.484-.6.513-.4,0-.6-.156-.6-.47Zm2.861.213a7.879,7.879,0,0,1-.47-1.623.533.533,0,0,1,.428-.683.639.639,0,0,1,.725.47q.256.941.384,1.494Q159.241,886.2,158.387,885.6Z" transform="translate(-140.777 -850.613)" fill="#a6a7a7"/>
    <path d="M169.344,878.127v-1.751c0-.314.2-.483.6-.512.4.029.613.2.642.512v1.751H173.4c.313.029.482.242.512.641-.03.4-.2.6-.512.6h-7.261v1.325h4.528c.541,0,.81.255.81.767v3.93c-.027.314-.242.483-.639.512-.4-.029-.6-.2-.6-.512v-3.2c0-.171-.1-.271-.3-.3h-3.884a16.061,16.061,0,0,1-.641,3.459.778.778,0,0,1-.769.6q-.6-.129-.47-.683a16.613,16.613,0,0,0,.769-4.526v-4.185c0-.284.2-.441.6-.47.37.029.571.186.6.47v1.58Z" transform="translate(-140.777 -850.613)" fill="#a6a7a7"/>
    <path d="M179.875,876.547h4.868a.659.659,0,0,1,.642.641.6.6,0,0,1-.642.6h-.6v6.7a1.294,1.294,0,0,1-1.026,1.283,3.823,3.823,0,0,1-2.518-.215c-.4-.2-.527-.456-.385-.767a.82.82,0,0,1,.983-.343,2.4,2.4,0,0,0,1.2.213q.469,0,.512-.725v-6.149h-3.032c-.37,0-.569-.2-.6-.6a.6.6,0,0,1,.6-.641Zm-3.757,1.281h.982v-1.452c0-.314.2-.483.6-.512.369.029.568.2.6.512v1.452h1.068q.469.043.512.6-.042.6-.512.6h-1.068v1.966a1.634,1.634,0,0,0,.556-.171c.085-.03.169-.057.255-.086a.647.647,0,0,1,.727.426.565.565,0,0,1-.343.727c-.4.172-.725.3-.982.385a1.4,1.4,0,0,1-.213.042v2.52q-.043,1.109-1.494,1.025a1.878,1.878,0,0,1-.982-.257.565.565,0,0,1-.257-.727.651.651,0,0,1,.769-.255c.541.142.8.028.769-.342v-1.622a3.015,3.015,0,0,1-.769.17c-.485.115-.8,0-.94-.341-.086-.4.115-.669.6-.811a9.869,9.869,0,0,0,1.112-.342v-2.307h-.982c-.343,0-.527-.2-.556-.6A.567.567,0,0,1,176.118,877.828Z" transform="translate(-140.777 -850.613)" fill="#a6a7a7"/>
    <path d="M187.2,877.188q-.086-.642.6-.683a30.831,30.831,0,0,0,3.118-.641q.386-.086.641.512.129.554-.257.683-1.194.3-1.964.47c-.426.085-.7.142-.811.171-.085,0-.115.042-.085.128v2.348h2.6q.383.043.426.684c-.029.4-.184.6-.47.6h-2.561v2.434c-.03.143-.015.228.041.257.03.029.13.015.3-.042a11.956,11.956,0,0,0,1.835-.641.62.62,0,0,1,.854.257.612.612,0,0,1-.34.811,14.143,14.143,0,0,1-2.05.641,2.935,2.935,0,0,0-.6.213q-1.321.342-1.28-.769v-7.43Zm4.74-.043c-.056-.6.172-.882.684-.855H195.7q.984-.04.9.855v7q.041,1.878-2.733,1.068-.558-.172-.428-.641c.114-.427.357-.613.726-.554q1.366.512,1.2-.514v-5.765a.271.271,0,0,0-.213-.169h-1.795c-.142.027-.2.084-.17.169v7.815c-.029.257-.242.384-.641.384s-.6-.127-.6-.384Z" transform="translate(-140.777 -850.613)" fill="#a6a7a7"/>
    <path d="M199.229,876.973h2.817c.029-.084.086-.228.171-.426q.215-.641.6-.683c.455-.03.727.142.813.512a3.365,3.365,0,0,1-.172.6h4.313q.555.043.556.684a.6.6,0,0,1-.642.6h-4.7a15.167,15.167,0,0,1-1.836,2.775v4.526c-.028.257-.243.4-.64.428-.37-.029-.556-.186-.556-.47v-3.2a1.567,1.567,0,0,1-.511.428c-.429.227-.755.184-.983-.129q-.213-.471.341-.939a9.576,9.576,0,0,0,1.068-1.067v-.429q0-.812.811-.639a9.971,9.971,0,0,0,.854-1.281h-2.3c-.4,0-.612-.215-.641-.642a.622.622,0,0,1,.641-.641Zm3.287,3.5h1.795v-1.323c0-.342.213-.512.64-.512.4.028.612.214.641.554v1.281h1.836a.656.656,0,0,1,.64.641c-.027.4-.228.6-.6.6h-1.878v2.691h2.221a.53.53,0,0,1,.512.554c-.029.37-.2.57-.512.6h-5.638a.571.571,0,0,1-.6-.64c.027-.313.255-.485.683-.512h2.05v-2.691h-1.88q-.555,0-.554-.641A.638.638,0,0,1,202.516,880.475Z" transform="translate(-140.777 -850.613)" fill="#a6a7a7"/>
    <path d="M222.032,877.786v-1.2q0-.515.683-.556.642.041.683.556v1.2h1.538c.37.027.57.27.6.725q-.042.683-.6.683h-1.494v5.381q.213,1.41-1.751,1.239a15.932,15.932,0,0,1-2.008-.214c-.512-.114-.754-.369-.725-.768.086-.37.384-.527.9-.47a9.318,9.318,0,0,0,1.75.213c.341.058.5-.071.47-.385v-5h-5.85q-.6,0-.641-.683c.058-.455.286-.7.683-.725Zm-2.861,5.209c-.086-.113-.2-.27-.341-.47A18.826,18.826,0,0,0,217.8,880.9a.594.594,0,0,1,.041-.9.757.757,0,0,1,1.026.127q1.07,1.581,1.452,2.178a.652.652,0,0,1-.256.854Q219.47,883.464,219.171,882.995Z" transform="translate(-140.777 -850.613)" fill="#a6a7a7"/>
    <path d="M227.694,877.957h1.283v-1.709c0-.257.184-.384.554-.384s.57.127.6.384v1.709h1.154q.94.6.043,1.2h-1.2v.47q1.026,1.323,1.453,1.964a.891.891,0,0,1-.042,1.025.52.52,0,0,1-.813-.128,8.761,8.761,0,0,1-.6-.94v4.014c-.027.286-.228.442-.6.47-.37-.028-.554-.172-.554-.427v-3.673a4.8,4.8,0,0,1-.727,1.239q-.512.639-.982.47c-.314-.228-.341-.555-.086-.982a10.325,10.325,0,0,0,1.623-3.5h-1.111c-.312,0-.483-.2-.512-.6.029-.37.2-.571.512-.6Zm4.185-.641c-.027-.654.243-.983.813-.983h3.159a.781.781,0,0,1,.855.855v7.558c0,.6-.272.9-.813.9h-2.946q-1.11,0-1.068-.938v-7.388Zm1.2.171v1.494h2.433v-1.494Zm2.433,4.141v-1.452h-2.433v1.452Zm-2.433,2.861h2.433v-1.665h-2.433Z" transform="translate(-140.777 -850.613)" fill="#a6a7a7"/>
    <path d="M244.075,878.127v-1.751c0-.314.2-.483.6-.512.4.029.612.2.641.512v1.751h2.819c.313.029.483.242.512.641-.029.4-.2.6-.512.6h-7.261v1.325H245.4q.812,0,.811.767v3.93c-.027.314-.242.483-.64.512-.4-.029-.6-.2-.6-.512v-3.2c0-.171-.1-.271-.3-.3h-3.884a16.062,16.062,0,0,1-.642,3.459.778.778,0,0,1-.769.6q-.6-.129-.47-.683a16.613,16.613,0,0,0,.769-4.526v-4.185c0-.284.2-.441.6-.47.37.029.57.186.6.47v1.58Z" transform="translate(-140.777 -850.613)" fill="#a6a7a7"/>
    <path d="M250.166,879.579c-.171-.314-.044-.784.385-1.409q.213-.3.468-.683.642-.9.94-1.281a.626.626,0,1,1,.982.767q-.854,1.026-1.323,1.709c-.058.057-.071.1-.044.128a.249.249,0,0,0,.172.044h.556a1.974,1.974,0,0,1,.255-.3,2.938,2.938,0,0,0,.256-.3.748.748,0,0,1,.9-.215q.469.342.042.94-.169.256-.982,1.281-.684.855-.9,1.153c-.056.086-.071.142-.042.171a.252.252,0,0,0,.172.042,11.093,11.093,0,0,0,1.151-.085q.6-.086.6.47c.058.426-.17.641-.683.641a10.316,10.316,0,0,1-1.75.086c-.741.027-1.082-.1-1.026-.385a1.18,1.18,0,0,1,.128-.9q.471-.724,1.153-1.58h-.768c-.37.03-.583-.071-.64-.3Zm3.887-2.006c-.03-.684.284-1.041.938-1.068q2.351-.087,4.057-.215.641-.04.684.47c.056.485-.157.727-.642.727a.176.176,0,0,1-.127.042c-.343.029-.713.044-1.112.044v2.263h1.624c.284.027.441.227.47.6q-.044.6-.47.6h-1.58q.3,3.288.982,3.544c.086-.028.142-.554.171-1.58,0-.314.17-.483.512-.512a.508.508,0,0,1,.512.512,9.349,9.349,0,0,1-.127,2.221q-.213.812-.684.811-2.176-.042-2.476-5h-1.537v3.117c-.03.113-.015.186.042.214.029.029.1.014.213-.042q.256-.129.47-.257c.115-.057.2-.1.257-.128a.51.51,0,0,1,.683.086c.255.4.213.683-.128.852a12.123,12.123,0,0,1-1.709.9q-1.152.341-1.023-.855v-7.344Zm1.2.34v1.923h1.494v-2.222c-.427.03-.84.043-1.239.043-.2,0-.285.085-.255.256Zm-4.612,6.534a1.015,1.015,0,0,0,.3-.085q1.536-.555,2.092-.811c.426-.2.712-.143.854.171a.59.59,0,0,1-.3.811q-1.111.469-2.348.9-1.113.3-1.154-.3Q249.909,884.661,250.636,884.447Z" transform="translate(-140.777 -850.613)" fill="#a6a7a7"/>
    <path d="M262.233,884.32h3.117v-7.56c0-.341.215-.526.642-.554q.639.042.683.554v2.094h3.715a.6.6,0,0,1,.6.639c-.029.428-.228.641-.6.641h-3.715v4.186h4.356a.529.529,0,0,1,.512.553c-.029.372-.2.571-.512.6h-8.8a.566.566,0,0,1-.554-.6A.544.544,0,0,1,262.233,884.32Z" transform="translate(-140.777 -850.613)" fill="#a6a7a7"/>
    <path d="M211.741,879.921a1.947,1.947,0,0,1,.683-.129,2.411,2.411,0,0,1,2.305,2.478,2.624,2.624,0,0,1-2.775,2.6,2.512,2.512,0,0,1-2.733-2.6q.129-2.264,2.775-5a4.54,4.54,0,0,1,.343-.3,1.463,1.463,0,0,1,.34-.042.725.725,0,0,1,.556,1.239c-.171.2-.355.412-.556.64-.482.541-.8.911-.938,1.111Zm.213,1.2a1.049,1.049,0,0,0-1.026,1.154q.045,1.065,1.026,1.109a1.044,1.044,0,0,0,1.068-1.109A1.1,1.1,0,0,0,211.954,881.116Z" transform="translate(-140.777 -850.613)" fill="#a6a7a7"/>
    <path d="M176.7,852.91c-.6,0-.922-.324-.969-.969a1.063,1.063,0,0,1,1.037-1.034h7.938q1.52-.07,1.381,1.243v1.379q.07,2.969-2,2.9-3.38.274-3.1-.9c-.139-.781.483-1.128,1.861-1.034,0,0,.024.021.071.068.783.047,1.172-.206,1.172-.76v-.9h-2.76a7.525,7.525,0,0,1-3.8,3.45c-.737.324-1.29.276-1.659-.136a.983.983,0,0,1,.209-1.52,1.269,1.269,0,0,0,.345-.138,5.642,5.642,0,0,0,2.554-1.656Zm-4.834,9.181q-1.24.067-1.175-1.243v-8.353q-.2-1.52,1.452-1.381h2.071q1.242,0,1.172,1.175v8.559c.047.919-.368,1.335-1.243,1.243Zm.69-9.045v2.486h.966v-2.486Zm4.9,9.113q-1.242.07-1.172-1.172v-2.9c0-.737.459-1.126,1.381-1.173H184.5a1.1,1.1,0,0,1,1.243,1.243v2.831c.044.875-.369,1.264-1.243,1.172Zm-4.9-2h.966v-2.692h-.966v2.692Zm11.184-1.31H178.29v1.381h5.452v-1.381Zm-13.184,6.7q.137-.278,1.449-2.418a.948.948,0,0,1,1.243-.412.816.816,0,0,1,.483,1.1,8.251,8.251,0,0,1-1.1,1.865c-.138.23-.276.483-.415.757a1.032,1.032,0,0,1-1.311.277.777.777,0,0,1-.344-1.173Zm14.22.69a12.861,12.861,0,0,1-.966-1.45,6.458,6.458,0,0,1-.553-.966.786.786,0,0,1,.276-1.1,1.191,1.191,0,0,1,1.45,0,7.835,7.835,0,0,0,.344.757q1.038,1.656,1.243,1.935.208.69-.621,1.172a.924.924,0,0,1-1.173-.344Zm-9.319-.206v-2.348a1.036,1.036,0,0,1,.9-1.105.9.9,0,0,1,1.037.9v2.486c-.047.506-.368.783-.966.831-.645,0-.966-.254-.966-.76Zm4.624.344a12.813,12.813,0,0,1-.76-2.624.865.865,0,0,1,.693-1.1,1.035,1.035,0,0,1,1.172.76q.415,1.52.621,2.415C181.58,866.831,181,867.016,180.083,866.371Z" transform="translate(-140.777 -850.613)" fill="#1a1311"/>
    <path d="M197.8,854.289v-2.831c0-.506.324-.78.966-.828.645.048.99.322,1.037.828v2.831h4.557c.506.047.78.392.827,1.037-.047.645-.321.966-.827.966H192.619v2.141h7.319q1.313,0,1.311,1.24v6.354c-.044.506-.392.78-1.034.827-.645-.047-.969-.321-.969-.827v-5.179c0-.276-.159-.438-.483-.483h-6.28a25.97,25.97,0,0,1-1.036,5.591,1.26,1.26,0,0,1-1.243.966q-.969-.207-.76-1.1a26.889,26.889,0,0,0,1.243-7.316v-6.766c0-.459.324-.713.966-.76.6.047.922.3.966.76v2.554Z" transform="translate(-140.777 -850.613)" fill="#1a1311"/>
    <path d="M216.341,853.255v-1.449c0-.554.345-.875,1.034-.969q1.038.07,1.1.9v1.52h2.9q1.864-.07,1.794,1.378v6.009c.091,1.2-.413,1.723-1.517,1.588H218.48v3.726a1.036,1.036,0,0,1-1.1,1.037c-.689,0-1.034-.325-1.034-.966v-3.8h-2.692q-2.28.2-2-1.588V854.7q-.137-1.52,1.726-1.449Zm-7.042,3.1a14.281,14.281,0,0,1-.966-1.862c-.277-.6-.484-1.06-.622-1.381a.9.9,0,0,1,.345-1.311,1.127,1.127,0,0,1,1.452.412q.963,1.864,1.517,3.175a1.166,1.166,0,0,1-.483,1.449.868.868,0,0,1-1.243-.482Zm4.35,3.59q0,.415.345.345h2.347v-5.108h-2.347q-.416.07-.345.345v4.418Zm4.831.345h2.347q.345.07.345-.345v-4.418q0-.274-.345-.345H218.48v5.108Zm-10.769,4.833a38.686,38.686,0,0,0,1.588-5.661.938.938,0,0,1,1.175-.828,1.01,1.01,0,0,1,.9,1.172,41.853,41.853,0,0,1-1.587,5.939,1.272,1.272,0,0,1-1.517.76A.986.986,0,0,1,207.711,865.128Z" transform="translate(-140.777 -850.613)" fill="#1a1311"/>
    <path d="M226.668,852.772q-.138-1.038.966-1.1a49.266,49.266,0,0,0,5.039-1.037c.416-.091.76.186,1.037.828q.208.9-.415,1.1c-1.287.324-2.348.577-3.175.76-.689.138-1.129.229-1.311.277-.138,0-.186.067-.138.206v3.8h4.212c.412.046.642.415.689,1.1-.047.645-.3.966-.76.966h-4.141v3.935c-.048.23-.024.368.067.416.047.047.209.023.486-.068a19.565,19.565,0,0,0,2.966-1.037,1,1,0,0,1,1.382.415.99.99,0,0,1-.551,1.311,22.791,22.791,0,0,1-3.314,1.037,4.66,4.66,0,0,0-.969.345q-2.138.552-2.07-1.244V852.772Zm7.664-.071q-.138-1.449,1.1-1.381H240.4q1.592-.066,1.452,1.381v11.323q.067,3.035-4.418,1.726c-.6-.186-.83-.53-.692-1.037.186-.689.577-.99,1.175-.9q2.21.826,1.933-.83v-9.32a.441.441,0,0,0-.345-.274h-2.9q-.345.067-.274.274V866.3c-.047.415-.392.621-1.037.621s-.966-.206-.966-.621Z" transform="translate(-140.777 -850.613)" fill="#1a1311"/>
  </g>
</svg>
