<svg xmlns="http://www.w3.org/2000/svg" viewBox="0 0 101.891 35.386" class="design-iconfont">
  <g fill-rule="evenodd">
    <path d="M156.127,951.635h2.306l.214-.514a.545.545,0,0,1,.727-.382.615.615,0,0,1,.426.725l-.042.171h4.611c.285.027.442.242.471.64q-.043.6-.471.6h-4.953l-.385,1.068h5.679c.314.029.485.227.514.6q-.043.6-.514.6h-5.978l-.3.9c-.085.171-.056.255.086.255h5.124c.768.144.925.541.47,1.2a14.234,14.234,0,0,1-2.178,1.793c.713.2,1.181.328,1.409.385.455.142.656.413.6.811-.144.369-.443.5-.9.384a42.309,42.309,0,0,0-5.251-1.195c-.428-.086-.627-.314-.6-.683a.705.705,0,0,1,.813-.513c.142.028.441.086.9.17q.854.127,1.409.215a11.826,11.826,0,0,0,1.623-1.111c.086-.057.113-.113.086-.17,0-.029-.044-.058-.128-.086h-4.228q-1.066.042-.726-.9l.471-1.45h-1.751q-.471,0-.514-.6c.029-.37.2-.568.514-.6h2.091l.343-1.068h-1.966q-.512,0-.512-.6C155.615,951.877,155.786,951.662,156.127,951.635Z" transform="translate(-155.145 -925.513)" fill="#a6a7a7"/>
    <path d="M172.124,951.336c0-.257.2-.4.6-.428q.6.043.64.47v8.072h2.9a.493.493,0,0,1,.47.512c-.029.37-.186.57-.47.6h-9.1c-.313-.027-.484-.227-.513-.6a.509.509,0,0,1,.513-.512h2.861v-8.028c0-.257.186-.4.556-.428.4,0,.612.127.639.384v8.072h.9v-8.114Zm1.751,5.765a28.509,28.509,0,0,0,1.665-4.528q.173-.469.769-.34a.585.585,0,0,1,.428.683,20.585,20.585,0,0,1-1.709,4.739q-.342.642-.9.428c-.342-.2-.426-.526-.256-.982Zm-5.466.512a43.8,43.8,0,0,0-1.495-4.4.654.654,0,0,1,.214-.855.629.629,0,0,1,.854.3,31.828,31.828,0,0,1,1.624,4.57.754.754,0,0,1-.428.9A.6.6,0,0,1,168.409,957.613Z" transform="translate(-155.145 -925.513)" fill="#a6a7a7"/>
    <path d="M181.2,952.916a.563.563,0,0,1-.982.042q-.683-.641-1.237-1.11a.521.521,0,0,1-.085-.9c.227-.286.541-.3.938-.044q.513.385,1.283,1.068c.34.369.369.683.083.94Zm.9-.428c-.343,0-.527-.2-.556-.6a.568.568,0,0,1,.556-.6h5.635c.286.03.443.228.47.6q-.04.6-.47.6H185.73v2.649h1.751c.284.027.441.228.47.6-.029.4-.186.6-.47.6H185.73v3.074h1.964a.53.53,0,0,1,.512.556c-.027.37-.2.57-.512.6h-6.362a.526.526,0,0,1-.6-.639q-.469.639-.94.6c-.426,0-.627-.342-.6-1.025V954.88a.15.15,0,0,0-.171-.171h-.341c-.342,0-.514-.2-.514-.6s.172-.612.514-.639h.9c.568-.059.84.34.81,1.2v3.8a5.466,5.466,0,0,0,.3-.6c-.085.255-.071.228.044-.086q.255-.6.769-.428c.341.142.441.443.3.9a5.656,5.656,0,0,1-.556,1.066c0-.027-.014,0-.044.086h.9v-5.295c0-.313.184-.485.554-.512.369.027.57.2.6.512v5.295h1.283v-6.918Z" transform="translate(-155.145 -925.513)" fill="#a6a7a7"/>
    <path d="M194.424,952.7h1.068V951.25c0-.313.213-.484.64-.511.428.027.656.2.683.511V952.7h2.179q.512.04.554.639-.042.642-.554.642h-2.179v2.177h2.478c.313.029.483.242.512.641,0,.4-.157.6-.47.6h-2.52v2.9c-.027.341-.255.527-.683.554-.427-.027-.64-.213-.64-.554v-2.9H192.8c-.341,0-.512-.2-.512-.6.029-.4.213-.612.556-.641h2.647v-2.177h-1.366q-.342,1.024-.385,1.109a.7.7,0,0,1-.854.385q-.555-.17-.385-.684a23.032,23.032,0,0,0,.9-3.2q.6-.852,1.2.044a3.983,3.983,0,0,1-.172,1.068Zm-4.611,2.135a18.185,18.185,0,0,0,1.494-3.759.561.561,0,0,1,.769-.3.657.657,0,0,1,.341.769q-.255,1.026-.513,1.879v6.577a.62.62,0,0,1-.639.64q-.642-.043-.641-.64v-4.228a.524.524,0,0,1-.811,0A.8.8,0,0,1,189.813,954.838Z" transform="translate(-155.145 -925.513)" fill="#a6a7a7"/>
    <path d="M205.212,952.1c-.372,0-.57-.2-.6-.6a.657.657,0,0,1,.641-.64h4.91q.94-.044.855.769v.853q.044,1.836-1.239,1.794-2.091.17-1.921-.555c-.085-.483.3-.7,1.152-.64,0,0,.015.013.044.042q.726.043.725-.47V952.1h-1.707a4.659,4.659,0,0,1-2.349,2.134c-.455.2-.8.171-1.026-.084a.608.608,0,0,1,.129-.94.778.778,0,0,0,.214-.086,3.491,3.491,0,0,0,1.579-1.024Zm-2.99,5.679c-.512.027-.754-.227-.727-.768v-5.168q-.126-.941.9-.854h1.281c.512,0,.755.242.725.727v5.295c.03.568-.227.825-.769.768Zm.426-5.595v1.538h.6v-1.538Zm3.032,5.637q-.768.043-.725-.725v-1.795c0-.455.284-.7.855-.725h4.227a.68.68,0,0,1,.769.769V957.1c.027.541-.228.782-.769.725Zm-3.032-1.239h.6v-1.665h-.6v1.665Zm6.919-.81h-3.373v.854h3.373v-.854Zm-8.156,4.143c.057-.115.356-.612.9-1.5a.585.585,0,0,1,.769-.255.505.505,0,0,1,.3.683,5.119,5.119,0,0,1-.684,1.153q-.128.215-.257.469a.636.636,0,0,1-.81.171q-.471-.3-.214-.725Zm8.8.426a7.85,7.85,0,0,1-.6-.9,4.071,4.071,0,0,1-.342-.6.486.486,0,0,1,.171-.683.734.734,0,0,1,.9,0c.03.085.1.24.214.468.428.683.683,1.082.769,1.2.085.284-.042.527-.385.725a.571.571,0,0,1-.725-.213Zm-5.765-.128v-1.452a.64.64,0,0,1,.554-.683.556.556,0,0,1,.641.554v1.538c-.029.313-.227.484-.6.514-.4,0-.6-.157-.6-.471Zm2.861.213a7.861,7.861,0,0,1-.47-1.623.534.534,0,0,1,.428-.683.64.64,0,0,1,.725.47q.257.941.384,1.494Q208.158,961.03,207.3,960.431Z" transform="translate(-155.145 -925.513)" fill="#a6a7a7"/>
    <path d="M215.486,951.848v-.6c0-.284.2-.44.6-.47.4.057.612.228.641.512v.556h1.707c.343.029.512.243.512.64-.027.4-.213.6-.554.6h-1.665v.767h1.964c.313.029.483.242.512.642-.029.4-.2.6-.512.6h-1.964v.727h1.237a.906.906,0,0,1,1.026,1.024v2.392c0,.684-.328,1.024-.982,1.024q-1.153.043-1.112-.6c0-.37.157-.556.471-.556h.213c.115,0,.171-.042.171-.127v-1.666c0-.171-.071-.257-.213-.257h-.811v3.118c-.029.313-.242.484-.641.514-.4,0-.6-.157-.6-.471v-3.161h-.727c-.17,0-.24.071-.213.213v2.393c-.027.313-.243.485-.64.512-.4,0-.6-.172-.6-.512V956.8c-.029-.683.311-1.011,1.024-.982h1.153v-.727h-2.008c-.34,0-.512-.2-.512-.6s.172-.613.512-.642h2.008v-.767h-1.281a2.348,2.348,0,0,1-.257.385q-.213.383-.769.213-.512-.215-.255-.813c0-.027.028-.071.084-.128a12.627,12.627,0,0,0,.683-1.494.562.562,0,0,1,.813-.342.475.475,0,0,1,.341.556,1.59,1.59,0,0,0-.086.384Zm5.3,7.6q.385.084.426-.3v-7.516c0-.313.2-.485.6-.514.4.029.613.2.64.514v8.028c-.027.768-.47,1.109-1.323,1.026q-1.88-.216-1.538-1.026c.057-.285.27-.414.64-.385.086.03.272.086.556.172Zm-1.409-1.2v-6.32q0-.471.6-.512.6.04.639.512v6.32c-.027.341-.24.527-.639.554C219.571,958.781,219.372,958.595,219.372,958.254Z" transform="translate(-155.145 -925.513)" fill="#a6a7a7"/>
    <path d="M227.17,954.581a10.515,10.515,0,0,0,1.323-3.2.667.667,0,0,1,.727-.556q.639.172.6.727a.827.827,0,0,0-.043.255,2.507,2.507,0,0,1-.086.429h3.972c.343.027.527.255.556.683-.029.455-.213.683-.556.683H230.8v1.281h2.561c.343.029.541.257.6.683-.027.427-.213.641-.556.641h-2.6v1.367h2.647q.511.041.6.64c-.029.426-.213.641-.556.641H230.8v1.494c-.03.313-.257.485-.684.512-.428-.027-.641-.2-.641-.512v-6.791h-.255a9.372,9.372,0,0,1-1.154,2.18.723.723,0,0,1-1.067,0c-.2-.286-.142-.669.171-1.154Zm-2.733.512a12.027,12.027,0,0,0,1.751-3.972c.084-.284.341-.382.767-.3.372.144.527.372.47.684a13.138,13.138,0,0,1-.769,2.348v6.321q-.041.513-.639.6c-.428,0-.641-.169-.641-.512v-4.27a.646.646,0,0,1-.9.043A.7.7,0,0,1,224.437,955.093Z" transform="translate(-155.145 -925.513)" fill="#a6a7a7"/>
    <path d="M240.3,951.378h4.868a.658.658,0,0,1,.641.641.6.6,0,0,1-.641.6h-.6v6.7a1.293,1.293,0,0,1-1.025,1.283,3.81,3.81,0,0,1-2.518-.215c-.4-.2-.527-.456-.385-.767a.819.819,0,0,1,.982-.343,2.4,2.4,0,0,0,1.2.214c.314,0,.485-.243.512-.726v-6.149H240.3c-.37,0-.569-.2-.6-.6a.6.6,0,0,1,.6-.641Zm-3.757,1.281h.982v-1.452c0-.313.2-.483.6-.512.37.029.569.2.6.512v1.452h1.068q.47.043.512.6c-.028.4-.2.6-.512.6h-1.068v1.966a1.634,1.634,0,0,0,.556-.171l.255-.086a.648.648,0,0,1,.727.427.565.565,0,0,1-.343.726q-.6.258-.982.385a1.4,1.4,0,0,1-.213.042v2.52q-.044,1.11-1.494,1.026a1.878,1.878,0,0,1-.982-.258.563.563,0,0,1-.257-.726.649.649,0,0,1,.769-.255c.541.142.8.027.769-.343v-1.622a2.976,2.976,0,0,1-.769.17c-.485.115-.8,0-.94-.341-.086-.4.114-.668.6-.811a9.454,9.454,0,0,0,1.112-.342v-2.307h-.982c-.343,0-.527-.2-.556-.6A.567.567,0,0,1,236.548,952.659Z" transform="translate(-155.145 -925.513)" fill="#a6a7a7"/>
    <path d="M247.632,952.019q-.084-.642.6-.683a30.764,30.764,0,0,0,3.117-.641c.258-.057.471.115.642.512.086.37,0,.6-.257.683q-1.194.3-1.964.47c-.427.086-.7.142-.811.171-.086,0-.115.042-.086.128v2.348h2.606q.382.045.426.684c-.029.4-.184.6-.47.6h-2.562v2.434c-.029.143-.014.228.042.258.03.028.13.014.3-.042a12.084,12.084,0,0,0,1.835-.642.621.621,0,0,1,.854.257.612.612,0,0,1-.34.811,14.144,14.144,0,0,1-2.05.641,3,3,0,0,0-.6.213q-1.323.342-1.281-.768v-7.431Zm4.741-.043c-.056-.6.171-.882.683-.855h3.074q.984-.04.9.855v7q.041,1.877-2.734,1.067-.557-.172-.428-.641c.115-.426.358-.612.727-.554q1.367.512,1.2-.514v-5.765a.272.272,0,0,0-.214-.169h-1.794c-.142.027-.2.084-.17.169v7.815c-.029.257-.242.384-.641.384s-.6-.127-.6-.384Z" transform="translate(-155.145 -925.513)" fill="#a6a7a7"/>
    <path d="M184.154,929.052a.91.91,0,0,1-1.588.068q-1.1-1.033-2-1.794a.843.843,0,0,1-.138-1.449c.368-.462.875-.483,1.517-.071q.829.624,2.073,1.726.826.9.136,1.52Zm1.452-.692c-.554,0-.851-.321-.9-.966a.916.916,0,0,1,.9-.966h9.11q.694.07.76.966c-.044.645-.3.966-.76.966h-3.243v4.283H194.3c.459.044.713.368.76.966-.047.642-.3.966-.76.966h-2.831v4.969h3.176a.857.857,0,0,1,.827.9c-.044.6-.321.922-.827.965H184.363a.849.849,0,0,1-.966-1.033q-.761,1.034-1.52.966c-.689,0-1.013-.554-.966-1.659v-7.454a.244.244,0,0,0-.277-.277h-.551c-.554,0-.831-.321-.831-.966s.277-.99.831-1.034h1.449q1.379-.142,1.311,1.932v6.144a8.961,8.961,0,0,0,.483-.966c-.138.412-.115.368.071-.138q.411-.967,1.243-.693c.551.23.713.716.483,1.453a9.151,9.151,0,0,1-.9,1.722c0-.043-.024,0-.071.139h1.452v-8.559c0-.507.3-.784.9-.828.6.044.922.321.967.828v8.559h2.073V928.36Z" transform="translate(-155.145 -925.513)" fill="#1a1311"/>
    <path d="M205.529,928.708h1.726V926.36c0-.506.344-.783,1.034-.827.692.044,1.06.321,1.1.827v2.348h3.523c.551.044.851.388.9,1.034-.044.692-.344,1.036-.9,1.036h-3.523v3.52H213.4c.507.047.781.392.828,1.037,0,.642-.254.966-.76.966h-4.074V941c-.044.551-.412.852-1.1.9-.69-.043-1.034-.344-1.034-.9V936.3H202.9c-.551,0-.827-.324-.827-.966.047-.645.344-.99.9-1.037h4.28v-3.52h-2.209q-.552,1.657-.622,1.794a1.124,1.124,0,0,1-1.381.622c-.6-.183-.8-.551-.622-1.1a37.2,37.2,0,0,0,1.45-5.178q.966-1.379,1.935.071a6.458,6.458,0,0,1-.277,1.726Zm-7.455,3.452a29.309,29.309,0,0,0,2.415-6.077.907.907,0,0,1,1.243-.483,1.06,1.06,0,0,1,.551,1.243q-.411,1.657-.828,3.037v10.633a1,1,0,0,1-1.034,1.034q-1.038-.07-1.037-1.034v-6.836a.845.845,0,0,1-1.31,0A1.3,1.3,0,0,1,198.074,932.16Z" transform="translate(-155.145 -925.513)" fill="#1a1311"/>
    <path d="M222.968,927.742c-.6,0-.921-.325-.969-.97a1.062,1.062,0,0,1,1.037-1.033h7.938q1.52-.072,1.382,1.243v1.378q.07,2.97-2,2.9-3.381.274-3.1-.9c-.138-.78.483-1.128,1.862-1.034,0,0,.023.021.07.068.784.047,1.173-.206,1.173-.76v-.9h-2.76a7.53,7.53,0,0,1-3.8,3.449c-.736.324-1.29.277-1.658-.136a.982.982,0,0,1,.209-1.52,1.3,1.3,0,0,0,.345-.138,5.637,5.637,0,0,0,2.553-1.655Zm-4.833,9.181c-.828.044-1.219-.368-1.175-1.243v-8.354q-.2-1.52,1.452-1.381h2.07q1.242,0,1.173,1.175v8.56q.07,1.379-1.243,1.243Zm.689-9.046v2.486h.966v-2.486Zm4.9,9.113q-1.241.072-1.172-1.172v-2.9c0-.737.46-1.125,1.382-1.172h6.833a1.1,1.1,0,0,1,1.243,1.243v2.83c.044.875-.368,1.264-1.243,1.172Zm-4.9-2h.966v-2.693h-.966v2.693Zm11.184-1.311h-5.452v1.381h5.452v-1.381Zm-13.184,6.7q.138-.279,1.449-2.418a.948.948,0,0,1,1.243-.413.816.816,0,0,1,.483,1.1,8.257,8.257,0,0,1-1.1,1.864c-.139.23-.277.483-.416.757a1.029,1.029,0,0,1-1.31.277c-.507-.321-.622-.713-.345-1.172Zm14.221.689a12.651,12.651,0,0,1-.966-1.449,6.611,6.611,0,0,1-.554-.966.788.788,0,0,1,.277-1.1,1.189,1.189,0,0,1,1.449,0,7.568,7.568,0,0,0,.345.757c.692,1.1,1.1,1.75,1.243,1.935.138.46-.068.852-.622,1.172a.923.923,0,0,1-1.172-.344Zm-9.32-.206V938.51a1.035,1.035,0,0,1,.9-1.1.9.9,0,0,1,1.037.9v2.486c-.048.507-.368.784-.966.831-.645,0-.967-.253-.967-.76Zm4.625.344a12.748,12.748,0,0,1-.76-2.624.865.865,0,0,1,.692-1.1,1.035,1.035,0,0,1,1.172.76q.416,1.521.622,2.416Q227.731,942.168,226.35,941.2Z" transform="translate(-155.145 -925.513)" fill="#1a1311"/>
  </g>
</svg>
