<svg xmlns="http://www.w3.org/2000/svg" viewBox="0 0 48.818 41.645" class="design-iconfont">
  <g fill-rule="evenodd">
    <path d="M456.429,592.926a2.153,2.153,0,1,1,.658,4.242c-3.019.177-3.992-3.613-.658-4.242Zm11.942.027a2.162,2.162,0,1,1,.9,4.209c-3.074.276-4.044-3.539-.9-4.209Zm9.858.41c-.194-.144-.913-1.25-1.358-1.725a16.818,16.818,0,0,0-5.169-3.96,20.68,20.68,0,0,0-10.125-2.153,19.655,19.655,0,0,0-9.4,2.887,15.061,15.061,0,0,0-5.822,6.58,12.7,12.7,0,0,0-.05,10.24,15.093,15.093,0,0,0,2.488,3.714,17.178,17.178,0,0,0,3.331,2.868,18.453,18.453,0,0,1-.809,2.607,20.58,20.58,0,0,0-.816,2.584c.49-.118,3.5-1.711,4.381-2.152.34-.169,1.157-.639,1.468-.739.448-.144,4.58,1.094,7.779.717a15.79,15.79,0,0,1-.513-3.694,12.671,12.671,0,0,1,.577-3.729,13.94,13.94,0,0,1,8.224-8.732,16.1,16.1,0,0,1,7.514-1.054C479.772,595.947,478.287,593.645,478.229,593.363Z" transform="translate(-445.254 -585.522)" fill="#419f25"/>
    <path d="M483.8,605.468c2.1-.547,3.8,2.311,1.107,3.266-2.329.826-3.564-2.625-1.107-3.266Zm-9.545.006c2.164-.619,3.816,2.432,1.107,3.27a1.9,1.9,0,0,1-2.345-1.055,1.716,1.716,0,0,1,1.238-2.215Zm19.566,2.957a7.978,7.978,0,0,1-.459-1.205,11.052,11.052,0,0,0-1.743-3.036c-3.115-3.919-7.964-5.957-13.577-5.667-4.6.546-8.167,2.057-10.939,5.6a11.1,11.1,0,0,0-.8,12.627,14.581,14.581,0,0,0,10.047,6.552,16.984,16.984,0,0,0,7.458-.409c.919-.244.747-.208,1.477.191s3.688,2.083,4,2.16c-.128-1.009-1.244-3.487-1.207-4.355A15.86,15.86,0,0,0,490.6,618.7a15.058,15.058,0,0,0,2.034-2.672C494.963,612.16,493.745,609.258,493.824,608.431Z" transform="translate(-445.254 -585.522)" fill="#419f25"/>
    <path d="M482.32,625.746c0,.785-5.814,1.421-12.986,1.421s-12.986-.636-12.986-1.421,5.814-1.422,12.986-1.422S482.32,624.961,482.32,625.746Z" transform="translate(-445.254 -585.522)" fill="#bfc0c1"/>
  </g>
</svg>
